Land_normalized_Motion_pl12
version=1
nRows=25
nColumns=43
inDegrees=yes
endheader
time		pelvis_tilt		pelvis_list		pelvis_rotation		pelvis_tx		pelvis_ty		pelvis_tz		hip_flexion_r		hip_adduction_r		hip_rotation_r		knee_angle_r		ankle_angle_r		subtalar_angle_r		mtp_angle_r		hip_flexion_l		hip_adduction_l		hip_rotation_l		knee_angle_l		ankle_angle_l		subtalar_angle_l		mtp_angle_l		lumbar_extension		lumbar_bending		lumbar_rotation		neck_flexion		neck_lateral_bending		neck_rotation		arm_flex_r		arm_add_r		arm_rot_r		elbow_flex_r		pro_sup_r		wrist_flex_r		wrist_dev_r		hand_finger_flex_r		arm_flex_l		arm_add_l		arm_rot_l		elbow_flex_l		pro_sup_l		wrist_flex_l		wrist_dev_l		hand_finger_flex_l		
0.745833		-2.128591		16.368619		87.713511		-0.039821		0.458960		0.469842		84.843278		-1.965619		3.993221		-140.212707		19.154247		-0.736057		18.694362		81.928789		-2.285037		-2.898927		-139.773976		21.276698		2.191030		17.526259		-67.228793		0.524879		5.652064		28.192401		-1.740165		-6.107851		57.509571		-33.759115		2.916450		77.768357		98.957790		-2.649740		-18.832282		0.173495		57.517875		-25.635934		16.070818		65.908078		131.206740		-43.517383		-6.773033		-18.020738		
0.748687		-2.248749		16.431528		87.733787		-0.039848		0.455001		0.468505		85.228058		-1.988460		4.329937		-140.832478		19.535607		-0.147504		18.796005		82.288130		-2.380200		-3.828081		-140.593000		21.601146		0.383042		15.926930		-67.565277		0.424871		5.469756		28.509066		-1.872074		-6.049553		59.721976		-33.842765		4.427157		77.406262		98.944220		-2.779996		-18.707751		0.388482		59.495544		-25.528881		16.592418		65.579671		131.113889		-43.377054		-6.621167		-18.030253		
0.751540		-2.296957		16.412101		87.774896		-0.039759		0.450983		0.467132		85.643007		-2.028544		4.535913		-141.416791		19.927067		0.285624		18.884524		82.781200		-2.501377		-4.538462		-141.413156		22.027294		-0.674237		14.760875		-67.829156		0.354940		5.360249		28.923953		-1.873096		-6.035578		61.774947		-33.925895		5.735095		77.156712		99.039770		-2.741266		-18.548620		0.608719		61.426592		-25.456473		17.123654		65.330684		131.141482		-43.104257		-6.600705		-17.982965		
0.754394		-2.390663		16.521812		87.810258		-0.039859		0.447473		0.465957		85.848420		-2.091853		4.933656		-141.958771		20.509543		1.217979		19.012318		83.094223		-2.590658		-5.352137		-142.144360		22.459680		-1.740970		12.776641		-68.222244		0.317517		5.156284		29.175044		-2.096323		-5.973713		64.019610		-33.873481		7.256768		76.720389		99.020289		-2.910105		-18.391820		0.811541		63.317598		-25.388808		17.659563		65.001914		130.958610		-43.103454		-6.311948		-18.073797		
0.757247		-2.605245		16.437960		87.973789		-0.039975		0.443668		0.464682		86.254057		-2.279482		5.403121		-142.506865		21.127559		1.995127		19.162662		83.620405		-2.586263		-6.154518		-142.869568		23.772409		-1.850220		5.733904		-68.431023		0.224308		4.850196		29.659673		-1.916638		-5.856761		65.988370		-33.943672		8.709014		76.443387		98.480618		-3.733514		-18.413973		1.857072		65.240988		-25.389217		18.394885		64.790681		130.589813		-43.085333		-6.163990		-18.070023		
0.760101		-2.580119		16.401947		87.998637		-0.039791		0.439978		0.463438		86.527900		-2.324716		5.526231		-142.992914		21.632401		2.385731		19.257191		84.143462		-2.765874		-6.489563		-143.570064		24.408639		-1.632422		4.807232		-68.657230		0.206088		4.823980		29.919907		-2.048665		-5.965147		67.902280		-33.901177		9.793349		76.204451		98.756887		-3.499737		-18.147534		2.163000		67.041800		-25.265212		18.833141		64.474649		130.725758		-42.682537		-6.202295		-17.951988		
0.762955		-2.592818		16.544200		88.064307		-0.039892		0.436893		0.462352		86.500671		-2.459523		5.872902		-143.427744		22.443289		3.568672		19.413467		84.403867		-2.870667		-6.703750		-144.158486		25.113444		-0.862051		3.831266		-69.077302		0.257878		4.684213		30.121348		-2.287271		-5.920506		69.980861		-33.740672		11.073190		75.800682		98.960334		-3.441027		-17.965110		2.303130		68.784714		-25.172524		19.267299		64.187247		130.654859		-42.597163		-5.900609		-18.002798		
0.765808		-2.653205		16.530582		88.173128		-0.039923		0.433462		0.461124		86.671955		-2.618776		6.167739		-143.881413		23.146218		4.245556		19.536774		84.867634		-2.958491		-6.853462		-144.724236		25.655418		-0.145865		3.079144		-69.319573		0.258474		4.541278		30.399428		-2.321715		-5.905564		71.813306		-33.708428		12.201848		75.551632		99.105277		-3.297374		-17.852939		2.426816		70.507229		-25.085724		19.764985		63.947638		130.669503		-42.287427		-5.781130		-17.949791		
0.768662		-2.725150		16.577237		88.299204		-0.040060		0.430422		0.460069		86.733193		-2.800483		6.523137		-144.292968		23.871945		5.172873		19.670884		85.203114		-2.999543		-6.880487		-145.169936		26.185690		0.790890		2.135619		-69.640455		0.284578		4.378319		30.620252		-2.433870		-5.880976		73.685790		-33.595125		13.318135		75.228681		99.160582		-3.274494		-17.776282		2.509666		72.200675		-24.973560		20.236120		63.714186		130.591777		-42.065208		-5.566148		-17.942958		
0.771515		-2.801714		16.628132		88.452968		-0.040199		0.427404		0.458955		86.813722		-3.017598		6.834960		-144.714965		24.521085		5.922957		19.792383		85.533847		-3.036568		-6.797094		-145.612164		26.552834		1.632911		1.461446		-69.946757		0.333851		4.220868		30.840623		-2.530537		-5.871005		75.473539		-33.525272		14.422711		74.937127		99.220789		-3.226292		-17.720797		2.588894		73.848922		-24.840442		20.684965		63.473086		130.523575		-41.769393		-5.419178		-17.902840		
0.774369		-2.892666		16.649907		88.607587		-0.040300		0.424375		0.457810		86.973212		-3.241119		7.105930		-145.149822		25.068137		6.482053		19.896193		85.904295		-3.075944		-6.654118		-146.040440		26.736993		2.312215		0.951583		-70.209066		0.367373		4.046632		31.058154		-2.581849		-5.863295		77.158795		-33.456933		15.470063		74.686467		99.305334		-3.143184		-17.660089		2.675947		75.462121		-24.716860		21.119358		63.230614		130.492986		-41.435067		-5.342158		-17.839678		
0.777222		-2.984116		16.650920		88.769816		-0.040393		0.421473		0.456761		87.202315		-3.471090		7.310964		-145.570650		25.456921		6.833794		19.977589		86.283397		-3.100090		-6.498090		-146.424878		26.763353		2.826905		0.746219		-70.458780		0.399252		3.884160		31.244403		-2.623110		-5.880471		78.799818		-33.388181		16.434413		74.455790		99.449637		-3.011158		-17.583048		2.756386		77.043713		-24.554766		21.516183		62.981467		130.489581		-41.066470		-5.325628		-17.750295		
0.780076		-3.063393		16.645206		88.920455		-0.040490		0.418815		0.455842		87.478036		-3.703422		7.452789		-145.961504		25.688186		7.120983		20.043192		86.645051		-3.125149		-6.346116		-146.761755		26.730911		3.257988		0.679069		-70.721795		0.428666		3.741256		31.421125		-2.651945		-5.908328		80.400119		-33.252661		17.282202		74.202224		99.581086		-2.925694		-17.517482		2.799239		78.582089		-24.361903		21.878372		62.756553		130.462225		-40.740830		-5.323307		-17.671651		
0.782929		-3.141048		16.654236		89.060941		-0.040500		0.416247		0.454940		87.821633		-3.949621		7.545601		-146.363000		25.770414		7.303626		20.100252		86.978671		-3.168873		-6.188864		-147.112086		26.656009		3.611514		0.723382		-70.989375		0.451606		3.580919		31.568224		-2.681526		-5.941872		81.949504		-33.100306		18.133103		73.960514		99.712150		-2.859465		-17.477220		2.824691		80.087360		-24.191158		22.237642		62.506404		130.390585		-40.452936		-5.339629		-17.602256		
0.785783		-3.212054		16.635166		89.176048		-0.040497		0.413826		0.454114		88.233677		-4.177157		7.585509		-146.740426		25.727953		7.345326		20.149898		87.336106		-3.228984		-6.082261		-147.437418		26.550605		3.876676		0.847690		-71.237973		0.457130		3.436243		31.708548		-2.682026		-5.978423		83.440279		-32.905693		18.882966		73.720867		99.847880		-2.803841		-17.435083		2.843001		81.557944		-24.009422		22.582579		62.258023		130.298976		-40.192131		-5.401270		-17.533080		
0.788636		-3.288606		16.644510		89.282603		-0.040407		0.411518		0.453300		88.654795		-4.435055		7.584265		-147.129169		25.599930		7.279209		20.219566		87.642541		-3.311341		-5.986514		-147.754295		26.426973		4.128799		1.086330		-71.504371		0.446607		3.261347		31.797940		-2.699031		-6.007088		84.909711		-32.739727		19.722040		73.483992		99.989963		-2.767293		-17.432799		2.859516		83.029351		-23.884015		22.983137		61.977630		130.111230		-39.983507		-5.517410		-17.473493		
0.791490		-3.368095		16.629311		89.373119		-0.040292		0.409367		0.452547		89.072459		-4.644290		7.563147		-147.479286		25.477018		7.148540		20.298067		87.965026		-3.378275		-5.929724		-148.043344		26.301467		4.320190		1.360382		-71.756637		0.412382		3.107946		31.891277		-2.678663		-6.022247		86.308924		-32.521696		20.397859		73.243515		100.124111		-2.745663		-17.415768		2.880732		84.448244		-23.717473		23.352584		61.725036		129.907402		-39.792537		-5.684147		-17.405326		
0.794343		-3.456941		16.630460		89.464075		-0.040151		0.407375		0.451783		89.423581		-4.848658		7.552338		-147.810273		25.406789		7.001689		20.386956		88.246454		-3.447319		-5.898845		-148.312897		26.178374		4.488305		1.656734		-72.017770		0.372472		2.936837		31.959033		-2.647098		-6.018310		87.638820		-32.292618		21.024905		73.022684		100.269898		-2.711725		-17.398932		2.916756		85.821979		-23.550212		23.693004		61.459471		129.686719		-39.609280		-5.887972		-17.324936		
0.797197		-3.517663		16.579545		89.540928		-0.039915		0.405488		0.450950		89.747796		-5.003932		7.502131		-148.118113		25.430059		6.954216		20.440186		88.556443		-3.537493		-5.869975		-148.567018		26.119139		4.573372		1.806557		-72.223709		0.328824		2.765107		32.092114		-2.601407		-6.024764		88.726149		-31.904600		21.321111		72.874158		100.354899		-2.705979		-17.352109		2.925757		87.060737		-23.266432		23.748668		61.217905		129.547153		-39.440365		-5.947214		-17.259862		
0.800051		-3.666521		16.890657		89.694069		-0.040036		0.404522		0.450406		89.563659		-5.265431		7.683414		-148.379038		25.505496		6.894633		20.681471		88.377885		-3.528745		-5.939985		-148.751781		26.003247		4.841545		2.708173		-72.818380		0.357751		2.524332		32.059550		-2.666477		-5.913598		90.279294		-31.767604		22.370855		72.454598		100.360150		-2.978250		-17.601932		2.884377		88.513773		-23.185543		24.356999		60.775648		128.664815		-39.562467		-6.503284		-17.173872		
0.802904		-3.707108		16.768684		89.765813		-0.039771		0.402747		0.449488		89.839214		-5.373421		7.667048		-148.650067		25.665945		6.932147		20.732897		88.747157		-3.620517		-5.877076		-148.976357		25.901050		4.889277		2.826955		-72.926856		0.318684		2.345538		32.131291		-2.542229		-5.912911		91.216257		-31.404318		22.633799		72.377321		100.409268		-2.933083		-17.526003		2.914307		89.631857		-22.983732		24.436381		60.573050		128.630497		-39.353153		-6.614615		-17.075069		
0.805758		-3.799676		16.807202		89.872492		-0.039788		0.401417		0.448710		89.895713		-5.540111		7.816850		-148.913816		25.932311		7.061624		20.819438		88.907040		-3.680594		-5.878881		-149.179300		25.748420		5.061201		3.163038		-73.201332		0.306997		2.156744		32.059757		-2.432821		-5.814424		92.392992		-31.241098		23.282554		72.183134		100.433385		-2.898505		-17.489461		2.945832		90.833061		-22.872398		24.777272		60.288924		128.527995		-39.168586		-6.958987		-16.923963		
0.808611		-3.898639		16.888856		89.980091		-0.039712		0.400526		0.448044		89.880532		-5.713795		7.977088		-149.128064		26.135374		7.330707		20.900877		88.922112		-3.760557		-5.869663		-149.319896		25.644337		5.240205		3.706812		-73.542006		0.296434		1.924769		32.033844		-2.373879		-5.729824		93.518092		-31.008763		23.939081		71.972211		100.261759		-3.046257		-17.542160		2.893432		92.019834		-22.701844		25.011808		59.892105		128.242005		-39.157085		-7.326561		-16.770580		
0.811465		-3.945923		16.841551		90.044023		-0.039641		0.399565		0.447297		90.013915		-5.838727		8.038089		-149.318299		26.229966		7.503791		20.943481		89.068174		-3.864587		-5.844526		-149.452593		25.582299		5.339745		4.070164		-73.749342		0.282016		1.762855		32.054767		-2.322130		-5.701903		94.412473		-30.675527		24.239504		71.852778		100.106927		-3.187721		-17.561400		2.839423		93.030435		-22.447472		25.049228		59.614402		128.032425		-39.150087		-7.503926		-16.664481		
0.814318		-3.966509		16.712251		90.093312		-0.039566		0.398627		0.446569		90.245131		-5.953273		8.045151		-149.479942		26.268155		7.575154		20.960241		89.296845		-4.005837		-5.788525		-149.563857		25.535532		5.414752		4.192449		-73.874073		0.268552		1.637417		32.097727		-2.265530		-5.689903		95.214444		-30.292287		24.357014		71.755863		100.086940		-3.223161		-17.507717		2.821941		93.964955		-22.167836		25.008584		59.379609		127.989671		-39.042832		-7.538289		-16.597242		
